<svg xmlns="http://www.w3.org/2000/svg" xmlns:xlink="http://www.w3.org/1999/xlink" width="1024" zoomAndPan="magnify" viewBox="0 0 768 767.999994" height="1024" preserveAspectRatio="xMidYMid meet" version="1.0"><defs><clipPath id="2d39a90436"><path d="M 33.3125 296.570312 L 294.25 296.570312 L 294.25 561.585938 L 33.3125 561.585938 Z M 33.3125 296.570312 " clip-rule="nonzero"/></clipPath><clipPath id="8c96d438c9"><path d="M 294.25 537.585938 L 294.25 420.113281 C 294.25 404.910156 287.480469 390.5 275.777344 380.792969 L 182.253906 303.238281 C 171.539062 294.355469 156.019531 294.355469 145.304688 303.238281 L 51.785156 380.792969 C 40.082031 390.5 33.3125 404.910156 33.3125 420.113281 L 33.3125 537.585938 C 33.3125 550.84375 44.054688 561.585938 57.3125 561.585938 L 270.25 561.585938 C 283.503906 561.585938 294.25 550.84375 294.25 537.585938 Z M 294.25 537.585938 " clip-rule="nonzero"/></clipPath><clipPath id="07ed21a964"><path d="M 0.3125 0.570312 L 261.25 0.570312 L 261.25 265.585938 L 0.3125 265.585938 Z M 0.3125 0.570312 " clip-rule="nonzero"/></clipPath><clipPath id="00666c08ea"><path d="M 261.25 241.585938 L 261.25 124.113281 C 261.25 108.910156 254.480469 94.5 242.777344 84.792969 L 149.253906 7.238281 C 138.539062 -1.644531 123.019531 -1.644531 112.304688 7.238281 L 18.785156 84.792969 C 7.082031 94.5 0.3125 108.910156 0.3125 124.113281 L 0.3125 241.585938 C 0.3125 254.84375 11.054688 265.585938 24.3125 265.585938 L 237.25 265.585938 C 250.503906 265.585938 261.25 254.84375 261.25 241.585938 Z M 261.25 241.585938 " clip-rule="nonzero"/></clipPath><clipPath id="a91144c970"><rect x="0" width="262" y="0" height="266"/></clipPath><clipPath id="1d71fafce6"><path d="M 330.0625 143 L 740.929688 143 L 740.929688 561.578125 L 330.0625 561.578125 Z M 330.0625 143 " clip-rule="nonzero"/></clipPath><clipPath id="e7cd40084e"><path d="M 740.929688 525.578125 L 740.929688 337.027344 C 740.929688 314.222656 730.773438 292.601562 713.21875 278.046875 L 563.207031 153.648438 C 547.136719 140.320312 523.855469 140.320312 507.785156 153.648438 L 357.773438 278.046875 C 340.21875 292.601562 330.0625 314.222656 330.0625 337.027344 L 330.0625 525.578125 C 330.0625 535.125 333.855469 544.28125 340.605469 551.03125 C 347.359375 557.785156 356.515625 561.578125 366.0625 561.578125 L 704.929688 561.578125 C 714.476562 561.578125 723.632812 557.785156 730.386719 551.03125 C 737.136719 544.28125 740.929688 535.125 740.929688 525.578125 Z M 740.929688 525.578125 " clip-rule="nonzero"/></clipPath><clipPath id="7476c8a513"><path d="M 0.0625 0 L 410.929688 0 L 410.929688 418.578125 L 0.0625 418.578125 Z M 0.0625 0 " clip-rule="nonzero"/></clipPath><clipPath id="087ed85d2f"><path d="M 410.929688 382.578125 L 410.929688 194.027344 C 410.929688 171.222656 400.773438 149.601562 383.21875 135.046875 L 233.207031 10.648438 C 217.136719 -2.679688 193.855469 -2.679688 177.785156 10.648438 L 27.773438 135.046875 C 10.21875 149.601562 0.0625 171.222656 0.0625 194.027344 L 0.0625 382.578125 C 0.0625 392.125 3.855469 401.28125 10.605469 408.03125 C 17.359375 414.785156 26.515625 418.578125 36.0625 418.578125 L 374.929688 418.578125 C 384.476562 418.578125 393.632812 414.785156 400.386719 408.03125 C 407.136719 401.28125 410.929688 392.125 410.929688 382.578125 Z M 410.929688 382.578125 " clip-rule="nonzero"/></clipPath><clipPath id="d7e76de78f"><rect x="0" width="411" y="0" height="419"/></clipPath></defs><rect x="-76.8" width="921.6" fill="#ffffff" y="-76.799999" height="921.599993" fill-opacity="1"/><rect x="-76.8" width="921.6" fill="#ffffff" y="-76.799999" height="921.599993" fill-opacity="1"/><g clip-path="url(#2d39a90436)"><g clip-path="url(#8c96d438c9)"><g transform="matrix(1, 0, 0, 1, 33, 296)"><g clip-path="url(#a91144c970)"><g clip-path="url(#07ed21a964)"><g clip-path="url(#00666c08ea)"><path fill="#ffbd59" d="M 261.25 265.585938 L 0.3125 265.585938 L 0.3125 -7.582031 L 261.25 -7.582031 Z M 261.25 265.585938 " fill-opacity="1" fill-rule="nonzero"/></g></g></g></g></g></g><g clip-path="url(#1d71fafce6)"><g clip-path="url(#e7cd40084e)"><g transform="matrix(1, 0, 0, 1, 330, 143)"><g clip-path="url(#d7e76de78f)"><g clip-path="url(#7476c8a513)"><g clip-path="url(#087ed85d2f)"><path fill="#004aad" d="M 410.929688 418.578125 L 0.0625 418.578125 L 0.0625 -11.550781 L 410.929688 -11.550781 Z M 410.929688 418.578125 " fill-opacity="1" fill-rule="nonzero"/></g></g></g></g></g></g></svg>